<svg width="789" height="248" viewBox="0 0 789 248" fill="none" xmlns="http://www.w3.org/2000/svg">
<path d="M57.2619 6.83847H66.954V31.6701C66.9422 34.0282 66.3467 36.1034 65.1676 37.8957C64.0003 39.6761 62.385 41.0674 60.3216 42.0696C58.27 43.0601 55.9059 43.5553 53.2294 43.5553C50.9066 43.5553 48.7842 43.1544 46.8623 42.3526C44.9404 41.539 43.4076 40.2656 42.2638 38.5324C41.1201 36.7873 40.5542 34.5235 40.566 31.7408H50.3996C50.4349 32.6487 50.5882 33.4151 50.8594 34.04C51.1424 34.665 51.5315 35.1366 52.0267 35.4549C52.5337 35.7615 53.1468 35.9148 53.8661 35.9148C54.5971 35.9148 55.2102 35.7556 55.7055 35.4373C56.2125 35.1189 56.5957 34.6473 56.8551 34.0223C57.1145 33.3856 57.2501 32.6015 57.2619 31.6701V6.83847ZM106.704 24.9493C106.704 28.9817 105.92 32.3834 104.352 35.1543C102.784 37.9133 100.667 40.0062 98.0023 41.4329C95.3376 42.8478 92.3663 43.5553 89.0884 43.5553C85.7869 43.5553 82.8039 42.8419 80.1391 41.4152C77.4862 39.9767 75.3756 37.878 73.8074 35.1189C72.251 32.348 71.4728 28.9582 71.4728 24.9493C71.4728 20.9168 72.251 17.521 73.8074 14.7619C75.3756 11.9911 77.4862 9.8982 80.1391 8.48329C82.8039 7.0566 85.7869 6.34325 89.0884 6.34325C92.3663 6.34325 95.3376 7.0566 98.0023 8.48329C100.667 9.8982 102.784 11.9911 104.352 14.7619C105.92 17.521 106.704 20.9168 106.704 24.9493ZM96.5874 24.9493C96.5874 22.7797 96.2985 20.9522 95.7208 19.4665C95.1548 17.9691 94.3118 16.8371 93.1916 16.0707C92.0833 15.2925 90.7155 14.9034 89.0884 14.9034C87.4612 14.9034 86.0876 15.2925 84.9675 16.0707C83.8591 16.8371 83.0161 17.9691 82.4383 19.4665C81.8724 20.9522 81.5894 22.7797 81.5894 24.9493C81.5894 27.1188 81.8724 28.9523 82.4383 30.4497C83.0161 31.9354 83.8591 33.0673 84.9675 33.8455C86.0876 34.6119 87.4612 34.9951 89.0884 34.9951C90.7155 34.9951 92.0833 34.6119 93.1916 33.8455C94.3118 33.0673 95.1548 31.9354 95.7208 30.4497C96.2985 28.9523 96.5874 27.1188 96.5874 24.9493ZM121.087 6.83847V43.0601H111.254V6.83847H121.087ZM157.088 6.83847V43.0601H148.881L135.794 24.0296H135.581V43.0601H125.748V6.83847H134.096L146.971 25.7982H147.254V6.83847H157.088ZM193.097 6.83847H202.931V30.0429C202.931 32.802 202.271 35.1896 200.95 37.2059C199.641 39.2103 197.814 40.7608 195.467 41.8574C193.121 42.9421 190.397 43.4845 187.296 43.4845C184.172 43.4845 181.436 42.9421 179.09 41.8574C176.743 40.7608 174.916 39.2103 173.607 37.2059C172.31 35.1896 171.661 32.802 171.661 30.0429V6.83847H181.495V29.194C181.495 30.3141 181.743 31.3163 182.238 32.2007C182.733 33.0732 183.417 33.7571 184.289 34.2523C185.174 34.7475 186.176 34.9951 187.296 34.9951C188.428 34.9951 189.43 34.7475 190.303 34.2523C191.175 33.7571 191.859 33.0732 192.354 32.2007C192.85 31.3163 193.097 30.3141 193.097 29.194V6.83847ZM227.13 18.1577C227.036 16.9786 226.594 16.0589 225.804 15.3986C225.025 14.7384 223.84 14.4082 222.249 14.4082C221.235 14.4082 220.403 14.532 219.755 14.7796C219.118 15.0154 218.647 15.3397 218.34 15.7524C218.033 16.1651 217.874 16.6367 217.863 17.1673C217.839 17.6035 217.916 17.9985 218.092 18.3523C218.281 18.6942 218.576 19.0067 218.977 19.2896C219.378 19.5608 219.891 19.8084 220.515 20.0325C221.14 20.2565 221.883 20.4569 222.744 20.6338L225.715 21.2705C227.72 21.695 229.435 22.255 230.862 22.9507C232.289 23.6464 233.456 24.4658 234.364 25.4091C235.272 26.3406 235.938 27.39 236.362 28.5573C236.799 29.7246 237.023 30.998 237.034 32.3775C237.023 34.7593 236.427 36.7755 235.248 38.4262C234.069 40.077 232.383 41.3327 230.19 42.1934C228.009 43.0542 225.385 43.4845 222.319 43.4845C219.171 43.4845 216.424 43.0188 214.078 42.0873C211.743 41.1558 209.927 39.7232 208.63 37.7895C207.345 35.844 206.697 33.3562 206.685 30.3259H216.023C216.082 31.4342 216.359 32.3657 216.854 33.1203C217.35 33.875 218.045 34.4468 218.941 34.8359C219.849 35.225 220.928 35.4196 222.178 35.4196C223.227 35.4196 224.106 35.2899 224.813 35.0305C225.521 34.7711 226.057 34.4114 226.423 33.9516C226.788 33.4918 226.977 32.9671 226.989 32.3775C226.977 31.8233 226.794 31.3399 226.44 30.9272C226.098 30.5028 225.532 30.1255 224.742 29.7953C223.953 29.4534 222.885 29.135 221.541 28.8403L217.933 28.0621C214.726 27.3664 212.197 26.205 210.346 24.5779C208.506 22.9389 207.593 20.7045 207.604 17.8747C207.593 15.5755 208.206 13.5652 209.444 11.8437C210.694 10.1104 212.421 8.76038 214.626 7.79353C216.843 6.82668 219.384 6.34325 222.249 6.34325C225.173 6.34325 227.702 6.83257 229.836 7.81121C231.97 8.78986 233.615 10.1694 234.771 11.9498C235.938 13.7184 236.527 15.7877 236.539 18.1577H227.13ZM260.106 43.0601H249.495L261.45 6.83847H274.892L286.848 43.0601H276.236L268.313 16.8136H268.03L260.106 43.0601ZM258.125 28.7695H278.076V36.127H258.125V28.7695ZM284.774 14.7619V6.83847H316.256V14.7619H305.361V43.0601H295.669V14.7619H284.774Z" fill="#212529"/>
<g clip-path="url(#clip0_1_136)">
<g clip-path="url(#clip1_1_136)">
<g clip-path="url(#clip2_1_136)">
<mask id="mask0_1_136" style="mask-type:luminance" maskUnits="userSpaceOnUse" x="40" y="58" width="709" height="174">
<path d="M748.636 58.5808H40.0234V231.455H748.636V58.5808Z" fill="white"/>
</mask>
<g mask="url(#mask0_1_136)">
<path d="M41.1538 64.3389H57.3193V108.63H65.2472V64.3389H90.4788V180.88H65.2472V132.388H57.3193V180.88H41.1538V64.3389Z" fill="#323232"/>
<path d="M187.31 122.533C187.31 160.068 174.922 183.627 138.867 183.627C106.095 183.627 93.8545 160.475 93.8545 122.27C93.8545 86.4124 106.095 62.7656 140.4 62.7656C174.705 62.7656 187.31 86.8356 187.31 122.541V122.533ZM128.052 122.046C128.052 148.919 129.561 156.698 136.978 156.698C144.395 156.698 146.795 149.222 146.795 121.759C146.795 96.3151 144.481 89.7745 136.893 89.7745C129.94 89.7745 128.044 96.1394 128.044 122.038L128.052 122.046Z" fill="#323232"/>
<path d="M214.725 94.5822H186.319V64.3469H292.997V94.5822H260.86V180.887H214.725V94.5822Z" fill="#323232"/>
<path d="M340.619 145.134C341.726 150.046 344.559 155.636 353.069 155.636C359.532 155.636 363.001 152.928 363.001 148.855C363.001 144.782 361.895 141.564 343.77 138.01C300.267 129.537 296.009 112.431 296.009 97.1855C296.009 75.1679 314.288 58.5649 351.342 58.5649C385.229 58.5649 408.665 71.6142 410.399 95.4845H363.791C362.846 90.3974 360.322 86.5082 352.914 86.5082C347.555 86.5082 344.877 88.7123 344.877 92.1064C344.877 96.1713 349.608 98.1998 361.91 100.58C402.579 108.206 413.449 123.108 413.449 141.915C413.449 167.838 391.067 183.922 354.02 183.922C313.669 183.922 294.329 166.984 291.023 145.134H340.627H340.619Z" fill="#323232"/>
<path d="M457.107 162.08L453.956 180.887H408.912L440.284 64.3469H502.762L530.796 180.887H486.31L482.919 162.08H457.083H457.092H457.107ZM476.888 130.743C475.363 121.671 471.6 104.149 469.718 91.2759H470.269C468.371 104.661 465.468 119.107 463.378 130.743H476.904H476.896H476.888Z" fill="#323232"/>
<path d="M569.243 64.3389V146.923C569.243 153.296 575.042 156.674 580.3 156.674C585.208 156.674 591.038 153.471 591.038 146.923V64.3389H628.781V142.219C628.781 172.742 605.082 184.193 578.465 184.193C551.847 184.193 527.591 171.791 527.591 141.971V64.3389H569.243Z" fill="#323232"/>
<path d="M706.496 140.781V142.067C706.496 164.596 699.737 184.202 673.267 184.202C649.421 184.202 633.952 170.21 633.952 127.157V119.642C633.952 75.2558 653.068 61.416 673.995 61.416C699.93 61.416 706.496 82.9464 706.496 102.768V104.269H676.294V102.361C676.294 92.2661 674.916 88.4009 672.562 88.4009C670.642 88.4009 667.6 92.4818 667.6 118.62V127.061C667.6 154.574 670.224 158.278 672.516 158.278C675.04 158.278 676.425 153.99 676.425 142.81V140.781H706.504H706.496Z" fill="#323232"/>
<path d="M744.695 128.874H730.954V158.686H748.636L745.803 180.88H710.956V64.3389H745.648V86.5321H730.954V106.697H744.695V128.89V128.874Z" fill="#323232"/>
<path d="M302.667 223.74V199.623H306.299V209.126C307.445 207.361 309.163 206.498 311.447 206.483C313.398 206.483 314.907 207.082 315.968 208.272C317.036 209.461 317.57 211.122 317.57 213.246V223.733H313.94V213.766C313.94 211.011 312.747 209.638 310.378 209.638C309.186 209.638 308.21 210.012 307.452 210.739C306.693 211.482 306.306 212.528 306.306 213.87V223.724H302.675L302.66 223.748L302.667 223.74Z" fill="#323232"/>
<path d="M334.735 221.672C333.125 223.333 331.089 224.164 328.65 224.164C326.211 224.164 324.175 223.333 322.541 221.672C320.915 220.011 320.103 217.887 320.103 215.324C320.103 212.76 320.923 210.643 322.541 208.998C324.167 207.345 326.195 206.515 328.65 206.515C331.104 206.515 333.125 207.345 334.735 208.998C336.345 210.652 337.151 212.76 337.151 215.324C337.151 217.887 336.345 220.011 334.735 221.672ZM325.197 219.548C326.064 220.594 327.202 221.113 328.65 221.113C330.098 221.113 331.235 220.594 332.103 219.548C332.97 218.502 333.403 217.088 333.403 215.315C333.403 213.543 332.97 212.16 332.095 211.122C331.22 210.077 330.074 209.557 328.665 209.557C327.257 209.557 326.079 210.068 325.212 211.098C324.345 212.129 323.911 213.534 323.911 215.315C323.911 217.096 324.345 218.502 325.212 219.548H325.197Z" fill="#323232"/>
<path d="M345.567 224.164C342.221 224.164 340.549 222.319 340.549 218.622V210.084H338.025V206.922H340.65L341.494 201.963H344.227V206.922H350.723V210.084H344.227V218.517C344.227 220.067 344.777 220.842 345.875 220.842C346.914 220.842 347.834 219.876 348.663 217.927L351.489 219.412C350.096 222.575 348.121 224.164 345.574 224.164H345.567Z" fill="#323232"/>
<path d="M352.65 231.447C351.039 231.447 349.7 230.992 348.647 230.057L349.995 227.103C350.645 227.885 351.357 228.285 352.108 228.285C353.123 228.285 353.626 227.614 353.626 226.272V206.914H357.257V226.344C357.257 228.141 356.823 229.443 355.956 230.249C355.089 231.04 353.982 231.439 352.65 231.455V231.439V231.447ZM355.437 204.079C354.833 204.103 354.261 203.88 353.827 203.456C353.626 203.257 353.455 203.008 353.347 202.721C353.239 202.45 353.176 202.154 353.192 201.851C353.192 201.555 353.239 201.251 353.347 200.972C353.455 200.701 353.626 200.438 353.827 200.237C354.268 199.83 354.841 199.59 355.437 199.59C356.033 199.59 356.607 199.815 357.048 200.237C357.265 200.445 357.435 200.693 357.543 200.972C357.651 201.251 357.714 201.555 357.698 201.851C357.698 202.147 357.651 202.45 357.527 202.705C357.404 202.961 357.249 203.224 357.032 203.424C356.815 203.631 356.576 203.799 356.297 203.911C356.018 204.023 355.732 204.071 355.43 204.071L355.437 204.079Z" fill="#323232"/>
<path d="M366.276 224.164C364.411 224.164 362.909 223.676 361.755 222.726C360.602 221.768 360.021 220.482 360.021 218.853C360.021 217.376 360.625 216.122 361.825 215.092C363.024 214.061 364.534 213.55 366.346 213.55C368.158 213.55 369.776 214.157 371.061 215.387V213.342C371.061 212.137 370.759 211.211 370.17 210.547C369.582 209.893 368.731 209.557 367.631 209.557C365.41 209.557 364.031 210.724 363.497 213.056L360.168 212.321C360.609 210.523 361.499 209.094 362.823 208.056C364.147 207.01 365.796 206.491 367.771 206.491C369.923 206.491 371.618 207.074 372.873 208.24C374.111 209.406 374.739 211.115 374.739 213.351V223.724H371.201V221.6C370.008 223.285 368.375 224.132 366.292 224.132L366.276 224.156V224.164ZM366.95 221.384C368.561 221.384 369.931 220.554 371.054 218.893V218.374C369.939 216.985 368.561 216.29 366.95 216.29C366.013 216.29 365.239 216.529 364.666 217C364.388 217.208 364.17 217.488 364.015 217.807C363.861 218.126 363.784 218.478 363.784 218.821C363.784 219.164 363.845 219.532 364 219.852C364.147 220.171 364.372 220.458 364.65 220.674C365.232 221.145 365.982 221.384 366.958 221.384L366.942 221.401L366.95 221.384Z" fill="#323232"/>
<path d="M378.253 223.74V206.914H381.791V209.829C382.698 207.704 384.23 206.642 386.437 206.642C387.738 206.642 388.821 207.073 389.657 207.96C390.51 208.838 390.935 210.02 390.935 211.498C390.935 212.376 390.78 213.263 390.501 214.101L387.172 213.75C387.242 213.294 387.281 212.831 387.304 212.361C387.304 210.619 386.607 209.757 385.221 209.757C384.284 209.757 383.487 210.268 382.853 211.299C382.218 212.328 381.892 213.678 381.892 215.379V223.74H378.261H378.253Z" fill="#323232"/>
<path d="M279.983 209.502C282.692 207.953 286.393 205.828 286.393 199.639H281.903C281.903 203.097 280.269 204.031 277.799 205.46C275.089 207.01 271.389 209.134 271.389 215.324H275.879C275.879 211.865 277.513 210.931 279.983 209.502Z" fill="#FF3C00"/>
<path d="M287.74 208.072C287.74 211.53 286.106 212.464 283.637 213.894C280.927 215.443 277.227 217.568 277.227 223.757H281.717C281.717 220.298 283.351 219.364 285.821 217.935C288.53 216.386 292.231 214.262 292.231 208.072H287.74Z" fill="#FF3C00"/>
<path d="M46.2946 205.827H51.0792L57.3503 223.716H53.4637L52.3489 220.37H45.0249L43.91 223.716H40.0234L46.2946 205.827ZM51.3966 217.527L48.7953 209.733H48.5707L45.9694 217.527H51.3966Z" fill="#323232"/>
<path d="M64.3801 214.772C64.3801 208.998 67.5544 205.596 72.5791 205.596C76.3727 205.596 79.4154 207.593 79.7637 212.033H76.1482C75.6526 209.813 74.2436 208.886 72.4551 208.886C69.4358 208.886 68.1661 211.466 68.1661 214.764C68.1661 218.062 69.4048 220.666 72.4551 220.666C74.2358 220.666 75.6526 219.747 76.1482 217.496H79.7637C79.4154 221.968 76.3727 223.964 72.5326 223.964C67.5544 223.964 64.3801 220.562 64.3801 214.764V214.772Z" fill="#323232"/>
<path d="M81.2888 214.772C81.2888 209.278 84.556 205.596 89.5651 205.596C94.5743 205.596 97.8414 209.278 97.8414 214.772C97.8414 220.267 94.5743 223.972 89.5651 223.972C84.556 223.972 81.2888 220.243 81.2888 214.772ZM89.5651 220.674C92.4142 220.674 94.0246 218.326 94.0246 214.772C94.0246 211.218 92.4142 208.895 89.5651 208.895C86.716 208.895 85.1057 211.194 85.1057 214.772C85.1057 218.35 86.716 220.674 89.5651 220.674Z" fill="#323232"/>
<path d="M100.18 205.827H104.043L111.026 217.583H111.104V205.827H114.82V223.716H110.81L103.973 212.193H103.896V223.716H100.18V205.827Z" fill="#323232"/>
<path d="M117.801 205.827H129.267V209.15H121.509V213.342H127.927V216.433H121.509V223.716H117.793V205.827H117.801Z" fill="#323232"/>
<path d="M131.048 205.828H142.885V209.15H134.756V213.159H142.142V216.146H134.756V220.387H143.133V223.709H131.048V205.82V205.828Z" fill="#323232"/>
<path d="M145.51 205.827H152.524C157.131 205.827 159.136 208.303 159.136 211.81C159.136 214.341 158.067 216.386 155.668 217.28L159.307 223.716H155.637L152.339 217.759H149.218V223.716H145.502V205.827H145.51ZM152.4 214.437C154.429 214.437 155.327 213.39 155.327 211.801C155.327 210.212 154.436 209.142 152.4 209.142H149.226V214.429H152.4V214.437Z" fill="#323232"/>
<path d="M161.482 205.828H173.32V209.15H165.19V213.159H172.576V216.146H165.19V220.387H173.567V223.709H161.482V205.82V205.828Z" fill="#323232"/>
<path d="M175.952 205.827H179.815L186.799 217.583H186.876V205.827H190.593V223.716H186.581L179.745 212.193H179.668V223.716H175.952V205.827Z" fill="#323232"/>
<path d="M192.977 214.772C192.977 208.998 196.151 205.596 201.175 205.596C204.969 205.596 208.012 207.593 208.36 212.033H204.745C204.25 209.813 202.84 208.886 201.051 208.886C198.032 208.886 196.763 211.466 196.763 214.764C196.763 218.062 198.001 220.666 201.051 220.666C202.832 220.666 204.25 219.747 204.745 217.496H208.36C208.012 221.968 204.969 223.964 201.129 223.964C196.151 223.964 192.977 220.562 192.977 214.764V214.772Z" fill="#323232"/>
<path d="M210.614 205.828H222.451V209.15H214.322V213.159H221.707V216.146H214.322V220.387H222.698V223.709H210.614V205.82V205.828Z" fill="#323232"/>
<path d="M231.354 205.827H238.392C242.255 205.827 244.012 207.593 244.012 210.3C244.012 212.241 243.145 213.342 241.512 213.878C244.09 214.596 245.205 216.257 245.205 218.478C245.205 221.369 243.269 223.716 238.686 223.716H231.354V205.827ZM238.245 213.087C239.359 213.087 240.304 212.472 240.304 211.019C240.304 209.566 239.359 209.054 238.245 209.054H235.071V213.095H238.245V213.087ZM238.57 220.499C240.652 220.499 241.373 219.348 241.373 218.047C241.373 216.745 240.652 215.515 238.57 215.515H235.079V220.499H238.57Z" fill="#323232"/>
<path d="M251.468 217.144L245.198 205.827H249.409L253.373 213.447L257.361 205.827H261.572L255.301 217.144V223.709H251.461V217.144H251.468Z" fill="#323232"/>
</g>
</g>
</g>
</g>
<defs>
<clipPath id="clip0_1_136">
<rect width="708.66" height="173.73" fill="white" transform="translate(40 58.0601)"/>
</clipPath>
<clipPath id="clip1_1_136">
<rect width="708.66" height="173.73" fill="white" transform="translate(40 58.0601)"/>
</clipPath>
<clipPath id="clip2_1_136">
<rect width="708.613" height="173.73" fill="white" transform="translate(40.0234 58.0601)"/>
</clipPath>
</defs>
</svg>
