<svg width="341" height="9" viewBox="0 0 341 9" fill="none" xmlns="http://www.w3.org/2000/svg">
<g clip-path="url(#clip0_1_829)">
<path d="M-0.89858 7.25181C2.68174 7.25181 5.5926 4.38543 5.66427 0.822273L13.8723 0.822272C13.944 4.38546 16.8548 7.25192 20.4352 7.25192C24.0155 7.25192 26.9263 4.38545 26.998 0.822272L35.2058 0.822271C35.2775 4.38545 38.1883 7.25192 41.7687 7.25192C45.349 7.25192 48.2598 4.38545 48.3315 0.822271L56.5397 0.82227C56.6114 4.38545 59.522 7.25192 63.1027 7.25192C66.6827 7.25192 69.5934 4.38545 69.6651 0.82227L77.8731 0.822269C77.9448 4.38545 80.8555 7.25192 84.4356 7.25192C88.0162 7.25192 90.9268 4.38545 90.9985 0.822269L99.2065 0.822268C99.2783 4.38545 102.189 7.25192 105.769 7.25192C109.35 7.25192 112.261 4.38545 112.332 0.822268L120.54 0.822267C120.612 4.38545 123.523 7.25192 127.103 7.25192C130.684 7.25192 133.594 4.38545 133.666 0.822267L141.874 0.822267C141.946 4.38545 144.856 7.25192 148.437 7.25192C152.017 7.25192 154.928 4.38545 155 0.822266L163.207 0.822266C163.279 4.35753 166.144 7.20696 169.686 7.25135C169.72 7.25187 169.754 7.25181 169.787 7.25181C169.792 7.25181 169.796 7.25181 169.8 7.25181C169.84 7.25166 169.88 7.25114 169.919 7.2502C173.439 7.18076 176.28 4.34151 176.35 0.822273L184.558 0.822272C184.63 4.38546 187.541 7.25192 191.121 7.25192C194.701 7.25192 197.613 4.38545 197.684 0.822272L205.892 0.822271C205.964 4.38545 208.875 7.25192 212.455 7.25192C216.035 7.25192 218.946 4.38545 219.018 0.822271L227.226 0.82227C227.297 4.38545 230.208 7.25192 233.789 7.25192C237.369 7.25192 240.28 4.38545 240.351 0.82227L248.559 0.822269C248.631 4.38545 251.542 7.25192 255.122 7.25192C258.702 7.25192 261.613 4.38545 261.685 0.822269L269.893 0.822268C269.964 4.38545 272.875 7.25192 276.456 7.25192C280.036 7.25192 282.947 4.38545 283.019 0.822268L291.227 0.822267C291.298 4.38545 294.209 7.25192 297.789 7.25192C301.37 7.25192 304.28 4.38545 304.352 0.822267L312.56 0.822267C312.632 4.38545 315.543 7.25192 319.123 7.25192C322.703 7.25192 325.614 4.38545 325.686 0.822266L333.893 0.822266C333.965 4.38545 336.876 7.25192 340.456 7.25192C340.506 7.25192 340.556 7.25135 340.606 7.2502V8.61862H-0.999794L-1 7.25109C-0.966255 7.25161 -0.932447 7.25181 -0.89858 7.25181Z" fill="white"/>
</g>
<defs>
<clipPath id="clip0_1_829">
<rect width="342" height="7.79635" fill="white" transform="translate(-1 0.822266)"/>
</clipPath>
</defs>
</svg>
