<svg width="15" height="221" viewBox="0 0 15 221" fill="none" xmlns="http://www.w3.org/2000/svg">
<g clip-path="url(#clip0_1_231)">
<g clip-path="url(#clip1_1_231)">
<path fill-rule="evenodd" clip-rule="evenodd" d="M5.95814 212.356C10.5423 212.448 14.2301 216.193 14.2301 220.799C14.2301 220.843 14.2298 220.887 14.2291 220.93L15.9885 220.93V1.03291L14.228 1.03358C14.2294 1.09711 14.2302 1.16129 14.2302 1.22548C14.2302 5.83211 10.5423 9.5768 5.95814 9.66908V20.2284C10.5423 20.3207 14.2302 24.066 14.2302 28.672C14.2302 33.2786 10.5423 37.0233 5.95814 37.1156V47.6756C10.5423 47.7679 14.2302 51.5125 14.2302 56.1192C14.2302 60.7251 10.5423 64.4705 5.95814 64.5628V75.1221C10.5423 75.2144 14.2302 78.959 14.2302 83.5657C14.2302 88.1716 10.5423 91.917 5.95814 92.0093V102.569C10.5423 102.662 14.2302 106.406 14.2302 111.013C14.2302 115.619 10.5423 119.363 5.95814 119.456V130.016C10.5423 130.108 14.2302 133.853 14.2302 138.459C14.2302 143.065 10.5423 146.81 5.95814 146.902V157.463C10.5423 157.555 14.2302 161.3 14.2302 165.906C14.2302 170.512 10.5423 174.257 5.95814 174.349V184.909C10.5423 185.001 14.2302 188.746 14.2302 193.352C14.2302 197.959 10.5423 201.704 5.95814 201.796V212.356Z" fill="white"/>
</g>
</g>
<defs>
<clipPath id="clip0_1_231">
<rect width="15" height="220" fill="white" transform="matrix(-1 0 0 -1 15 220.93)"/>
</clipPath>
<clipPath id="clip1_1_231">
<rect width="10.6991" height="220" fill="white" transform="matrix(-1 0 0 -1 16 220.93)"/>
</clipPath>
</defs>
</svg>
