<svg width="15" height="221" viewBox="0 0 15 221" fill="none" xmlns="http://www.w3.org/2000/svg">
<g clip-path="url(#clip0_1_246)">
<g clip-path="url(#clip1_1_246)">
<path fill-rule="evenodd" clip-rule="evenodd" d="M9.04186 9.50385C4.45769 9.41163 0.769909 5.66667 0.769909 1.06041C0.769909 1.01684 0.770243 0.973347 0.770898 0.929932L-0.988525 0.930196V220.827L0.771975 220.826C0.770551 220.763 0.769828 220.699 0.769828 220.634C0.769828 216.028 4.45766 212.283 9.04186 212.191V201.631C4.45766 201.539 0.769828 197.794 0.769828 193.188C0.769828 188.581 4.45766 184.837 9.04186 184.744V174.184C4.45766 174.092 0.769828 170.347 0.769828 165.741C0.769828 161.135 4.45766 157.389 9.04186 157.297V146.738C4.45766 146.645 0.769828 142.901 0.769828 138.294C0.769828 133.688 4.45766 129.943 9.04186 129.851V119.291C4.45766 119.198 0.769828 115.454 0.769828 110.847C0.769828 106.241 4.45766 102.496 9.04186 102.404V91.8441C4.45766 91.7518 0.769828 88.0071 0.769828 83.4012C0.769828 78.7946 4.45766 75.0499 9.04186 74.9576V64.3973C4.45766 64.3052 0.769828 60.5602 0.769828 55.9539C0.769828 51.3476 4.45766 47.6027 9.04186 47.5106V36.9508C4.45766 36.8585 0.769828 33.1136 0.769828 28.5074C0.769828 23.9011 4.45766 20.1561 9.04186 20.0639V9.50385Z" fill="#CCCCCC"/>
</g>
</g>
<defs>
<clipPath id="clip0_1_246">
<rect width="15" height="220" fill="white" transform="translate(0 0.929932)"/>
</clipPath>
<clipPath id="clip1_1_246">
<rect width="10.6991" height="220" fill="white" transform="translate(-1 0.929932)"/>
</clipPath>
</defs>
</svg>
